<svg xmlns="http://www.w3.org/2000/svg" xmlns:xlink="http://www.w3.org/1999/xlink" id="topLeftLogo" xml:space="preserve" height="452.98px" viewBox="0 0 508.475 452.978" width="508.48px" version="1.1" y="0px" x="0px" enable-background="new 0 0 508.475 452.978">
  <rect y="-281" x="-131.6" height="119" width="607" fill="none"/>
  <g fill="#ffffff">
    <path d="m20.36 404.18c20.75-1.522 37.956-7.088 48.58-19.232 12.148-13.666 17.207-32.894 17.207-91.596v-205.96h44.535v223.17c0 47.57-7.591 78.438-29.354 100.71-19.735 19.732-52.123 27.831-75.907 27.831l-5.063-34.92z"/>
    <path d="m187.05 87.216l32.837 124.27c6.57 27.3 13.1 52.5 17.7 77.797h1.514c5.556-24.753 13.64-51.023 21.724-77.29l39.909-124.78h37.379l37.887 122.25c9.092 29.3 16.2 55.1 21.7 79.814h1.514c4.041-24.753 10.605-50.516 18.691-79.311l34.857-122.76h43.943l-78.801 244.5h-40.416l-37.379-116.69c-8.592-27.281-15.662-51.526-21.725-80.321h-1.008c-6.062 29.298-13.641 54.558-22.23 80.825l-39.39 116.2h-40.415l-73.76-244.5h45.47z"/>
    <rect y="12.8" x="85.1" height="44.6" width="44.6"/>
    <path d="m139.06 424.63c2.628-0.196 4.803-0.899 6.147-2.437 1.539-1.73 2.18-4.161 2.18-11.59v-26.06h5.631v28.239c0 6.02-0.959 9.923-3.712 12.744-2.497 2.497-6.596 3.52-9.604 3.52l-0.65-4.41z"/>
    <path d="m184.02 408.11c0 2.7 0.1 5.3 0.4 7.429h-5.058l-0.448-3.904h-0.194c-1.726 2.431-5.057 4.608-9.479 4.608-6.272 0-9.473-4.419-9.473-8.902 0-7.492 6.658-11.589 18.635-11.525v-0.641c0-2.499-0.704-7.171-7.045-7.107-2.945 0-5.954 0.831-8.133 2.305l-1.284-3.778c2.565-1.601 6.341-2.689 10.247-2.689 9.5 0 11.8 6.5 11.8 12.615v11.59zm-5.45-8.39c-6.147-0.128-13.123 0.96-13.123 7 0 3.7 2.4 5.4 5.2 5.4 4.1 0 6.721-2.562 7.618-5.189 0.192-0.641 0.255-1.278 0.255-1.794v-5.38z"/>
    <path d="m215.22 414.44c-1.475 0.706-4.739 1.794-8.905 1.794-9.348 0-15.428-6.34-15.428-15.817 0-9.541 6.527-16.521 16.648-16.521 3.3 0 6.3 0.8 7.8 1.666l-1.278 4.288c-1.344-0.704-3.461-1.469-6.532-1.469-7.107 0-10.951 5.312-10.951 11.7 0 7.2 4.6 11.6 10.8 11.6 3.2 0 5.313-0.765 6.913-1.473l0.96 4.22z"/>
    <path d="m249.5 399.78c0 11.46-8.003 16.456-15.434 16.456-8.326 0-14.854-6.148-14.854-15.944 0-10.309 6.851-16.394 15.366-16.394 8.88-0.01 14.9 6.5 14.9 15.87zm-24.53 0.32c0 6.8 3.8 11.9 9.3 11.9 5.4 0 9.411-5.058 9.411-12.039 0-5.25-2.623-11.846-9.281-11.846-6.6 0.01-9.48 6.15-9.48 11.98z"/>
    <path d="m256.62 370.07h5.568v19.468h0.129c1.982-3.462 5.569-5.637 10.563-5.637 7.8 0 13.1 6.4 13.1 15.8 0 11.079-7.045 16.585-13.965 16.585-4.478 0-8.065-1.73-10.437-5.761h-0.126l-0.322 5.058h-4.802c0.129-2.113 0.26-5.25 0.26-8.004v-37.47zm5.57 33.04c0 0.7 0.1 1.4 0.3 2 1 3.9 4.4 6.6 8.5 6.6 6 0 9.418-4.804 9.418-11.913 0-6.21-3.203-11.526-9.288-11.526-3.779 0-7.367 2.691-8.519 6.917-0.189 0.705-0.318 1.473-0.318 2.368v5.5z"/>
    <path d="m294.86 384.54l4.167 15.752c0.83 3.5 1.7 6.7 2.2 9.86h0.193c0.705-3.138 1.731-6.467 2.751-9.798l5.062-15.815h4.734l4.81 15.495c1.151 3.7 2 7 2.8 10.118h0.186c0.517-3.138 1.348-6.405 2.373-10.054l4.417-15.559h5.575l-9.992 30.993h-5.124l-4.732-14.793c-1.093-3.459-1.989-6.533-2.757-10.182h-0.129c-0.766 3.714-1.731 6.916-2.816 10.246l-4.994 14.729h-5.124l-9.35-30.993h5.75z"/>
    <path d="m365.71 407.02c0 3.3 0.1 6.1 0.3 8.518h-4.995l-0.323-5.058h-0.123c-1.413 2.498-4.74 5.761-10.248 5.761-4.867 0-10.692-2.754-10.692-13.575v-18.122h5.633v17.096c0 5.9 1.9 9.9 6.9 9.9 3.8 0 6.402-2.625 7.423-5.183 0.325-0.769 0.517-1.794 0.517-2.885v-18.952h5.631v22.47z"/>
    <path d="m375.09 392.93c0-3.264-0.068-5.826-0.26-8.386h4.994l0.323 5.122h0.128c1.534-2.884 5.122-5.763 10.242-5.763 4.3 0 11 2.6 11 13.192v18.442h-5.632v-17.867c0-4.996-1.859-9.155-7.174-9.155-3.649 0-6.534 2.625-7.556 5.762-0.255 0.704-0.386 1.665-0.386 2.625v18.636h-5.632v-22.59z"/>
    <path d="m437.35 370.07v37.46c0 2.8 0.1 5.9 0.3 8.004h-4.993l-0.256-5.38h-0.196c-1.662 3.457-5.379 6.083-10.435 6.083-7.493 0-13.318-6.34-13.318-15.754-0.068-10.31 6.403-16.583 13.896-16.583 4.8 0 7.9 2.2 9.3 4.675h0.123v-18.51h5.58zm-5.57 27.09c0-0.708-0.062-1.667-0.255-2.37-0.828-3.522-3.905-6.469-8.129-6.469-5.829 0-9.285 5.124-9.285 11.9 0 6.3 3.1 11.5 9.2 11.5 3.8 0 7.235-2.56 8.259-6.724 0.192-0.768 0.255-1.536 0.255-2.431v-5.38z"/>
    <path d="m449.92 401.06c0.13 7.6 4.9 10.8 10.6 10.8 4 0 6.533-0.705 8.584-1.601l1.02 4.035c-1.985 0.897-5.443 1.985-10.369 1.985-9.544 0-15.239-6.34-15.239-15.689s5.504-16.648 14.536-16.648c10.176 0 12.8 8.8 12.8 14.5 0 1.153-0.062 1.985-0.19 2.625h-21.77zm16.52-4.03c0.061-3.523-1.479-9.093-7.812-9.093-5.767 0-8.196 5.185-8.643 9.093h16.45z"/>
    <path d="m478.88 394.21c0-3.649-0.066-6.787-0.258-9.667h4.932l0.255 6.148h0.192c1.409-4.165 4.865-6.79 8.646-6.79 0.6 0 1 0.1 1.5 0.127v5.316c-0.58-0.127-1.153-0.127-1.923-0.127-3.97 0-6.791 2.946-7.557 7.171-0.127 0.77-0.193 1.727-0.193 2.625v16.522h-5.634v-21.33z"/>
    <rect y="374.7" x="147.7" height="5.4" width="5.4"/>
  </g>
  <rect y="-134.6" x="531.6" height="23.6" width="355.1"/>
</svg>
