<?xml version="1.0" encoding="UTF-8" standalone="no"?>
<!-- Created with Inkscape (http://www.inkscape.org/) -->

<svg
   xmlns:dc="http://purl.org/dc/elements/1.1/"
   xmlns:cc="http://creativecommons.org/ns#"
   xmlns:rdf="http://www.w3.org/1999/02/22-rdf-syntax-ns#"
   xmlns:svg="http://www.w3.org/2000/svg"
   xmlns="http://www.w3.org/2000/svg"
   xmlns:sodipodi="http://sodipodi.sourceforge.net/DTD/sodipodi-0.dtd"
   xmlns:inkscape="http://www.inkscape.org/namespaces/inkscape"
   width="1028"
   height="1028"
   viewBox="0 0 1028 1028"
   id="svg2"
   version="1.1"
   inkscape:version="0.91 r13725"
   sodipodi:docname="koi.svg">
  <defs
     id="defs4">
    <inkscape:perspective
       sodipodi:type="inkscape:persp3d"
       inkscape:vp_x="0 : 526.18109 : 1"
       inkscape:vp_y="0 : 999.99998 : 0"
       inkscape:vp_z="744.09448 : 526.18109 : 1"
       inkscape:persp3d-origin="372.04724 : 350.78739 : 1"
       id="perspective3357" />
  </defs>
  <sodipodi:namedview
     id="base"
     pagecolor="#ffffff"
     bordercolor="#666666"
     borderopacity="1.0"
     inkscape:pageopacity="0.0"
     inkscape:pageshadow="2"
     inkscape:zoom="0.49497475"
     inkscape:cx="387.9027"
     inkscape:cy="483.30325"
     inkscape:document-units="px"
     inkscape:current-layer="layer1"
     showgrid="false"
     inkscape:window-width="1280"
     inkscape:window-height="751"
     inkscape:window-x="0"
     inkscape:window-y="0"
     inkscape:window-maximized="1"
     showborder="true"
     inkscape:snap-grids="true"
     units="px" />
  <metadata
     id="metadata7">
    <rdf:RDF>
      <cc:Work
         rdf:about="">
        <dc:format>image/svg+xml</dc:format>
        <dc:type
           rdf:resource="http://purl.org/dc/dcmitype/StillImage" />
        <dc:title></dc:title>
      </cc:Work>
    </rdf:RDF>
  </metadata>
  <g
     inkscape:label="Layer 1"
     inkscape:groupmode="layer"
     id="layer1"
     transform="translate(0,-24.362183)"
     style="display:inline">
    <path
       style="fill:none;fill-opacity:1"
       d="M 475.96168,686.42228 C 416.22656,515.66631 367.36576,374.75894 367.38212,373.29481 c 0.0468,-4.18405 27.05073,-56.35473 41.5251,-80.22475 19.4212,-32.02797 35.84332,-36.8879 57.19453,-59.13283 40.06692,-41.74402 72.96249,-75.92674 112.432,-75.72907 33.93634,0.16996 60.57517,30.27966 93.12509,62.83061 24.22698,24.22773 47.09798,40.6194 66.51332,80.10917 18.13189,36.87934 31.78176,71.65133 30.55628,77.8394 -1.04732,5.28851 -182.97786,616.72072 -183.72705,617.46991 -0.23672,0.23672 -49.30459,-139.27903 -109.03971,-310.03497 z"
       id="path4187"
       inkscape:connector-curvature="0"
       transform="translate(0,24.362183)"
       sodipodi:nodetypes="scssssssss" />
    <a
       id="a4195">
      <path
         sodipodi:nodetypes="csssccssscc"
         inkscape:connector-curvature="0"
         id="path4193"
         d="m 535.91808,1014.8717 c 0,0 -95.68701,-424.04858 -132.49741,-616.88729 -8.7545,-45.86252 -141.0482,-88.79425 -140.0485,-99.79913 1.6317,-17.96169 132.1752,-41.20402 139.637,-78.48204 16.3328,-81.59623 52.7764,-182.041366 136.23021,-181.280039 l 2.79762,0 c 83.45381,-0.761327 119.89741,99.683809 136.23021,181.280039 7.4618,37.27802 138.0053,60.52035 139.637,78.48204 0.9997,11.00488 -131.294,53.93661 -140.0485,99.79913 -36.8104,192.83871 -136.88613,616.88729 -136.88613,616.88729 z"
         style="fill:none;fill-rule:evenodd;stroke:#000000;stroke-width:1.05132401px;stroke-linecap:butt;stroke-linejoin:miter;stroke-opacity:1" />
    </a>
  </g>
</svg>
